<?xml version="1.0" standalone="no"?>
<!DOCTYPE svg PUBLIC "-//W3C//DTD SVG 20010904//EN"
 "http://www.w3.org/TR/2001/REC-SVG-20010904/DTD/svg10.dtd">
<svg version="1.0" xmlns="http://www.w3.org/2000/svg"
 width="300.000000pt" height="254.000000pt" viewBox="0 0 300.000000 254.000000"
 preserveAspectRatio="xMidYMid meet">
<metadata>
Created by potrace 1.10, written by Peter Selinger 2001-2011
</metadata>
<g transform="translate(0.000000,254.000000) scale(0.100000,-0.100000)"
fill="#000000" stroke="none">
<path d="M1255 2504 c-11 -3 -56 -19 -100 -36 -44 -17 -114 -41 -155 -55 -170
-55 -336 -174 -464 -333 -48 -60 -74 -99 -81 -120 -4 -14 -17 -43 -28 -65 -17
-34 -17 -38 -3 -26 10 8 29 16 43 17 29 3 40 11 29 21 -4 4 -16 2 -27 -6 -22
-13 -22 -17 -3 50 4 14 9 18 13 10 5 -8 17 2 34 27 31 43 35 61 10 41 -15 -13
-15 -12 -4 9 14 27 26 28 41 5 8 -13 13 -14 16 -5 3 6 12 12 19 12 7 0 16 -6
18 -12 4 -9 6 -9 6 2 1 8 15 29 33 47 44 45 14 44 -39 -2 -44 -37 -65 -46 -42
-18 12 15 12 16 -1 8 -11 -6 -10 -2 3 12 9 11 35 26 57 33 22 7 42 21 45 32 6
17 16 22 43 19 7 -1 15 5 18 14 4 9 12 14 19 11 7 -2 21 4 31 15 9 10 23 19
31 19 7 0 22 9 33 20 11 11 21 19 23 18 2 -3 76 28 97 41 8 5 35 15 60 21 25
7 54 16 65 20 25 11 74 21 98 21 9 0 17 4 17 8 0 4 14 8 30 8 17 0 35 4 40 9
7 7 -6 10 -35 9 -25 -1 -48 -5 -52 -8 -3 -4 -18 -4 -32 -1 -18 4 -22 3 -13 -4
10 -7 5 -11 -20 -17 -18 -4 -35 -9 -38 -10 -3 -1 -18 -7 -35 -14 -16 -7 -46
-15 -64 -17 -38 -5 -161 -62 -161 -74 0 -4 -11 -11 -25 -14 -14 -4 -25 -11
-25 -16 0 -6 -5 -10 -11 -10 -5 0 -8 4 -4 10 3 5 -6 5 -24 -1 -20 -7 -28 -15
-24 -25 3 -9 -2 -14 -14 -14 -10 0 -34 -15 -52 -34 -18 -19 -42 -37 -54 -40
-15 -4 -10 5 19 35 21 22 49 42 62 46 16 4 21 10 17 21 -3 9 -3 13 1 9 4 -3
19 2 34 13 16 11 35 20 43 20 8 0 25 8 38 18 13 10 39 24 57 31 25 10 30 17
22 26 -8 10 -8 15 1 21 7 4 9 3 5 -4 -11 -18 13 -24 30 -8 8 9 20 16 26 16 5
0 21 9 35 20 17 13 34 18 46 14 11 -4 17 -2 13 4 -3 5 26 14 70 21 52 9 81 19
94 33 17 18 35 22 124 27 l105 6 4 -25 c4 -23 4 -23 6 4 1 21 5 27 17 22 9 -3
70 -11 137 -17 141 -12 193 -30 73 -25 -45 2 -72 0 -64 -5 9 -5 51 -9 94 -10
84 -2 212 -30 224 -49 4 -6 11 -11 16 -10 15 2 84 -32 84 -42 0 -12 -13 -10
-35 6 -25 16 -75 26 -75 15 0 -5 3 -9 8 -10 26 -3 46 -9 55 -18 8 -8 8 -11 0
-11 -7 0 -15 5 -18 10 -4 6 -11 7 -17 4 -14 -9 80 -56 101 -51 17 4 14 6 -31
21 -10 3 -18 9 -18 13 0 15 65 12 103 -4 31 -14 35 -19 20 -24 -16 -6 -15 -8
7 -17 14 -5 32 -18 40 -27 8 -9 24 -21 36 -25 12 -5 25 -21 28 -35 8 -30 25
-52 41 -51 6 1 11 -9 13 -22 2 -15 9 -22 20 -20 12 2 17 -4 17 -23 0 -21 3
-25 23 -21 19 4 23 1 20 -14 -2 -12 5 -23 20 -29 12 -5 22 -15 22 -21 0 -7 9
-22 21 -35 l20 -24 -17 28 c-11 19 -13 27 -4 27 15 0 -15 49 -42 68 -10 7 -18
18 -18 23 0 6 -15 25 -32 43 -18 18 -47 50 -65 72 -48 60 -144 154 -158 154
-6 0 -52 19 -101 43 -96 47 -208 87 -319 113 -69 16 -394 29 -440 18z"/>
<path d="M1680 2401 c0 -10 40 -22 52 -15 18 11 6 24 -22 24 -16 0 -30 -4 -30
-9z"/>
<path d="M1155 2310 c-56 -8 -57 -11 -4 -15 21 -2 45 2 55 10 11 8 15 14 9 13
-5 -1 -32 -4 -60 -8z"/>
<path d="M1408 2273 c7 -66 14 -69 11 -5 -2 28 -6 52 -10 52 -3 0 -4 -21 -1
-47z"/>
<path d="M1934 2261 c4 -36 -4 -57 -15 -39 -6 9 -9 10 -9 1 0 -7 -7 -10 -15
-7 -8 4 -15 3 -15 0 0 -13 45 -24 58 -13 9 7 17 4 28 -12 9 -12 21 -21 27 -20
17 3 47 -11 47 -22 0 -5 -7 -9 -15 -9 -18 0 -18 -2 -3 -35 11 -25 28 -34 28
-15 0 6 -4 10 -9 10 -4 0 -3 15 3 34 6 22 15 32 24 29 9 -4 10 -9 3 -16 -15
-15 -14 -21 8 -46 11 -13 24 -20 30 -17 5 3 12 0 14 -6 4 -9 6 -9 6 -1 1 6 -5
18 -13 26 -9 8 -11 19 -6 28 9 14 -5 39 -22 39 -6 0 -23 11 -40 25 -16 14 -42
25 -58 25 -32 0 -48 15 -25 24 19 7 9 33 -15 39 -15 4 -18 0 -16 -22z"/>
<path d="M2072 2263 c5 -19 2 -23 -15 -24 -21 0 -21 -1 -3 -12 10 -7 40 -26
66 -43 60 -39 96 -48 96 -23 0 12 -10 21 -28 24 -16 4 -26 10 -23 15 7 11 -15
25 -40 25 -11 0 -20 5 -20 11 0 6 -9 19 -19 30 -19 19 -20 19 -14 -3z"/>
<path d="M934 2252 c-28 -22 -37 -57 -15 -59 9 -1 34 -4 56 -7 22 -3 32 -3 22
0 -9 3 -15 9 -12 13 2 5 -7 6 -22 3 -18 -3 -24 -1 -19 7 4 6 1 11 -6 12 -7 0
-2 4 10 10 13 5 28 7 33 3 5 -3 9 0 9 5 0 6 -6 11 -14 11 -8 0 -16 4 -18 10
-1 5 -13 1 -24 -8z"/>
<path d="M1097 2239 c-26 -21 -15 -39 13 -21 11 7 31 12 46 12 14 0 31 6 38
13 21 21 -71 18 -97 -4z"/>
<path d="M789 2183 c-11 -13 -9 -14 17 -11 31 3 40 20 12 24 -9 1 -23 -5 -29
-13z"/>
<path d="M1418 2156 c-2 -20 -1 -39 4 -44 4 -4 13 -49 20 -100 7 -50 16 -92
20 -92 4 0 8 6 8 14 0 8 3 16 8 19 4 2 1 2 -5 1 -7 -2 -13 0 -13 5 0 5 11 12
25 15 24 6 36 26 15 26 -5 0 -10 -5 -10 -11 0 -7 -8 -1 -18 12 -19 25 -46 135
-36 150 3 5 1 16 -4 25 -7 13 -10 9 -14 -20z"/>
<path d="M865 2154 c-16 -13 -28 -24 -25 -25 3 0 13 -2 23 -4 9 -2 24 6 32 18
l15 21 1 -24 c1 -17 3 -19 6 -7 2 9 8 17 13 17 5 0 7 6 4 13 -8 21 -37 17 -69
-9z"/>
<path d="M1781 2163 c2 -10 0 -23 -3 -29 -4 -6 0 -11 8 -11 11 0 14 7 11 24
-4 23 7 32 16 13 3 -6 4 -5 3 2 -1 7 -11 15 -20 16 -12 3 -17 -2 -15 -15z"/>
<path d="M1008 2152 c-5 -18 -1 -25 18 -33 36 -13 51 -11 29 4 -11 9 -15 19
-10 27 6 10 4 12 -8 7 -9 -3 -17 -1 -20 6 -2 6 -6 1 -9 -11z"/>
<path d="M1896 2155 c-3 -8 -1 -14 3 -12 16 4 73 -45 67 -58 -2 -7 2 -19 9
-25 8 -7 12 -16 9 -21 -3 -5 1 -9 9 -9 8 0 17 9 20 20 3 11 1 20 -4 20 -5 0
-9 6 -9 13 -1 17 -40 62 -67 76 -28 14 -30 14 -37 -4z"/>
<path d="M749 2132 c-1 -9 -1 -20 0 -24 0 -5 -3 -8 -9 -8 -5 0 -10 -7 -10 -15
0 -12 -4 -13 -18 -6 -14 7 -21 5 -30 -10 -16 -26 -15 -42 3 -35 8 3 15 0 15
-6 0 -19 26 12 53 64 20 37 22 48 11 52 -8 3 -14 -2 -15 -12z"/>
<path d="M803 2119 c-1 -12 -10 -27 -20 -35 -16 -12 -16 -15 -3 -24 17 -11 37
-14 27 -3 -4 3 1 12 11 19 13 10 14 13 3 14 -11 0 -10 4 4 13 10 8 15 19 11
25 -12 19 -32 14 -33 -9z"/>
<path d="M2147 2106 c13 -15 20 -32 17 -37 -3 -5 7 -14 23 -19 45 -17 137 -63
155 -78 9 -8 14 -20 12 -27 -3 -7 24 -43 60 -81 36 -37 63 -71 60 -76 -9 -15
-86 37 -110 75 -13 20 -32 37 -42 37 -15 -1 -15 -2 3 -16 11 -8 21 -19 21 -24
1 -6 2 -15 3 -21 2 -18 121 -128 134 -124 7 3 20 -7 30 -20 23 -32 0 -35 -28
-5 -10 11 -26 20 -35 20 -10 0 -34 7 -53 15 -47 19 -57 19 -29 -1 26 -18 29
-34 6 -34 -20 0 -13 -24 9 -28 11 -2 17 3 17 13 0 15 2 16 17 4 15 -12 16 -12
8 1 -7 12 -6 13 7 3 8 -7 18 -10 21 -7 3 3 20 -4 37 -16 17 -12 29 -25 26 -27
-3 -3 1 -17 8 -32 19 -36 31 -131 17 -131 -6 0 -20 18 -31 39 -20 40 -40 61
-40 42 0 -5 5 -13 11 -17 6 -3 8 -15 6 -26 -7 -25 22 -88 40 -88 7 0 13 -11
13 -27 0 -21 3 -24 12 -15 7 7 12 37 11 70 -1 50 0 53 7 22 5 -22 6 -6 3 44
-6 87 7 98 28 23 15 -55 17 -69 18 -150 1 -43 5 -66 11 -62 13 8 13 3 -5 -32
-8 -16 -20 -65 -25 -109 -6 -43 -22 -110 -36 -148 -13 -38 -22 -72 -19 -74 18
-18 66 109 72 188 6 97 8 110 16 110 5 0 5 9 2 20 -4 11 -2 20 4 20 15 0 15
236 1 245 -7 4 -9 -2 -5 -18 4 -14 2 -28 -3 -31 -16 -10 -33 85 -19 103 10 12
9 14 -5 8 -12 -4 -18 -1 -18 9 0 8 5 12 10 9 6 -3 10 5 10 19 0 29 -37 133
-50 141 -5 3 -1 -14 9 -37 32 -73 34 -95 10 -101 -16 -4 -24 1 -34 28 -8 18
-21 35 -30 38 -8 4 -15 13 -15 22 0 18 12 19 28 3 7 -7 12 -8 12 -2 0 6 -9 19
-20 29 -12 10 -30 39 -40 63 -19 43 -62 92 -91 106 -11 5 -11 7 -1 12 18 8
-14 44 -39 44 -10 0 -23 13 -31 30 -15 35 -38 49 -30 18 4 -18 3 -19 -17 -9
-11 7 -21 16 -21 21 0 6 -6 10 -14 10 -8 0 -18 4 -21 10 -3 6 1 7 9 4 9 -3 24
-3 33 0 15 6 15 8 3 16 -8 6 -30 10 -48 10 -18 0 -45 8 -60 18 l-27 17 22 -29z"/>
<path d="M945 2109 c-10 -16 0 -21 29 -13 14 3 23 10 20 15 -7 12 -41 11 -49
-2z"/>
<path d="M1250 2074 c6 -16 21 -44 32 -62 21 -34 19 -53 -4 -35 -15 11 -48 22
-94 29 -40 7 -55 -13 -17 -21 15 -3 40 -12 54 -19 34 -17 80 -9 86 15 3 10 10
16 17 13 6 -4 -4 8 -21 25 -18 18 -33 38 -33 45 0 8 -7 19 -15 26 -14 11 -14
10 -5 -16z"/>
<path d="M1005 2064 c8 -9 22 -13 30 -10 26 10 16 26 -16 26 -28 0 -29 -1 -14
-16z"/>
<path d="M2053 2061 c-13 -20 0 -41 25 -41 9 0 11 7 7 23 -11 33 -19 38 -32
18z"/>
<path d="M2100 2041 c0 -5 12 -12 28 -16 24 -7 25 -8 8 -14 -20 -8 -20 -8 0
-13 10 -3 27 -9 36 -13 22 -9 18 17 -7 45 -18 20 -65 28 -65 11z"/>
<path d="M573 2013 c-13 -9 -23 -25 -23 -37 0 -12 -5 -27 -11 -33 -9 -9 -7
-11 9 -6 11 3 28 14 38 24 20 23 44 25 44 4 0 -8 11 -17 25 -21 18 -4 34 2 64
25 21 17 46 31 54 31 9 0 19 5 22 10 12 19 -43 10 -86 -15 -45 -25 -90 -36
-59 -14 11 8 12 12 3 16 -7 2 -13 12 -13 21 0 12 -4 11 -23 -6 -27 -25 -46
-30 -27 -7 18 22 9 26 -17 8z"/>
<path d="M2004 2011 c3 -4 19 -14 36 -21 16 -7 27 -16 24 -21 -3 -5 2 -6 10
-3 21 8 13 19 -26 38 -35 18 -52 20 -44 7z"/>
<path d="M1545 1989 c-11 -35 11 -44 23 -10 9 25 8 31 -3 31 -7 0 -17 -9 -20
-21z"/>
<path d="M2272 1975 c-10 -18 -21 -20 -155 -28 -26 -1 -36 -6 -32 -15 3 -8 5
-18 5 -23 0 -5 7 -9 15 -9 8 0 15 7 15 15 0 21 18 19 32 -4 6 -10 18 -17 25
-14 10 4 11 9 2 19 -6 8 -10 14 -8 15 19 4 60 6 47 2 -25 -6 -22 -18 8 -38 31
-20 35 -17 36 24 1 33 7 38 26 19 19 -19 25 -2 9 28 -13 25 -15 26 -25 9z"/>
<path d="M1858 1973 c6 -2 10 -9 6 -14 -3 -5 4 -9 15 -9 12 0 30 -9 41 -20 12
-12 26 -18 33 -13 16 10 57 11 57 1 0 -4 8 -8 18 -7 10 0 12 3 5 6 -7 2 -13
11 -13 19 0 9 -5 12 -10 9 -6 -4 -18 -1 -26 6 -11 9 -18 8 -35 -7 -19 -17 -20
-17 -25 3 -3 12 -13 24 -21 27 -8 3 -11 1 -8 -4 3 -6 1 -10 -4 -10 -6 0 -11 5
-11 10 0 6 -8 10 -17 9 -11 0 -13 -3 -5 -6z"/>
<path d="M766 1955 c-8 -8 -25 -19 -38 -24 l-23 -10 26 0 c24 -1 69 27 69 43
0 11 -18 6 -34 -9z"/>
<path d="M1582 1958 c7 -19 38 -22 38 -4 0 10 -9 16 -21 16 -12 0 -19 -5 -17
-12z"/>
<path d="M1353 1953 c-17 -6 -16 -33 1 -33 7 0 16 9 19 20 5 20 2 22 -20 13z"/>
<path d="M2464 1917 c2 -15 9 -33 16 -40 9 -8 11 -8 6 0 -3 6 -1 13 5 15 6 2
3 13 -10 28 l-20 25 3 -28z"/>
<path d="M1850 1922 c0 -6 6 -15 13 -19 8 -4 17 -17 21 -28 6 -16 9 -17 16 -5
15 23 12 40 -8 40 -10 0 -23 5 -30 12 -9 9 -12 9 -12 0z"/>
<path d="M506 1889 c-19 -20 -36 -29 -48 -26 -15 4 -28 -15 -72 -106 -55 -114
-69 -149 -82 -202 l-7 -30 -8 25 c-6 19 -8 13 -5 -23 2 -26 0 -50 -5 -53 -5
-3 -9 -37 -9 -76 0 -53 4 -76 17 -90 14 -16 15 -24 4 -71 -18 -73 1 -174 51
-271 5 -10 16 -36 24 -57 19 -55 60 -106 96 -118 37 -13 33 -28 -19 -63 -38
-26 -128 -128 -181 -207 -18 -26 -19 -32 -7 -27 9 3 21 6 26 6 6 0 9 8 7 18
-2 11 3 16 14 14 11 -2 16 2 13 10 -6 17 48 78 69 78 9 0 16 5 16 10 0 6 -5
10 -12 10 -6 0 -1 8 10 19 12 10 22 22 22 25 0 12 23 31 57 48 28 14 33 14 48
-1 9 -9 0 9 -19 39 -20 30 -41 70 -47 90 -12 38 -26 57 -34 48 -3 -3 2 -24 11
-47 9 -23 14 -44 11 -47 -5 -6 -67 98 -67 112 0 5 -8 25 -19 44 -17 32 -33 82
-59 183 -7 26 -7 35 0 30 8 -4 9 4 5 25 -4 18 -3 32 1 32 4 0 8 21 7 48 0 32
-4 46 -12 44 -10 -1 -13 17 -13 65 1 62 2 66 15 49 14 -19 15 -18 15 11 0 18
-5 35 -10 38 -12 7 -7 29 23 95 12 25 26 65 31 89 6 24 18 47 26 49 12 4 13 3
2 -10 -7 -9 -19 -54 -26 -101 -8 -47 -19 -94 -25 -105 -14 -26 -14 -43 0 -19
12 21 39 23 39 2 0 -8 5 -14 12 -13 22 5 20 -34 -3 -83 -19 -43 -21 -52 -9
-73 22 -42 40 -41 40 4 0 21 4 50 10 64 5 15 6 26 1 26 -5 0 -11 29 -13 63 -2
51 1 68 15 82 10 11 16 24 13 31 -2 6 1 20 9 30 18 26 23 109 8 123 -10 9 -13
9 -14 -1 0 -7 -2 -31 -4 -54 -3 -46 -68 -180 -73 -152 -2 10 9 57 24 105 16
49 27 96 26 105 -2 18 109 138 128 138 5 0 10 7 10 15 0 24 -23 17 -54 -16z"/>
<path d="M591 1899 c-11 -11 -22 -26 -22 -34 -2 -24 -4 -29 -13 -43 -4 -7 -6
-15 -4 -17 7 -7 23 10 35 37 8 17 23 30 40 34 54 11 56 13 41 27 -20 19 -53
18 -77 -4z"/>
<path d="M845 1900 c-19 -12 -38 -17 -54 -13 -17 4 -22 2 -17 -6 13 -21 71
-13 96 14 28 29 17 31 -25 5z"/>
<path d="M1004 1901 c-2 -2 -4 -16 -4 -30 1 -24 2 -25 14 -8 23 31 66 36 139
18 37 -10 67 -13 67 -9 0 5 6 6 13 3 6 -4 3 1 -7 9 -11 9 -36 17 -55 18 -65 4
-162 3 -167 -1z"/>
<path d="M1980 1885 c-10 -12 -9 -16 6 -21 11 -3 33 -12 51 -20 40 -18 49 -18
57 2 9 23 8 24 -16 33 -13 5 -28 5 -34 0 -7 -6 -16 -4 -24 6 -16 19 -24 19
-40 0z"/>
<path d="M2124 1886 c-6 -17 12 -56 26 -56 15 0 12 26 -5 40 -13 11 -13 15 -3
21 10 7 10 9 0 9 -7 0 -15 -6 -18 -14z"/>
<path d="M2184 1885 c-16 -13 -17 -16 -4 -25 22 -14 47 -13 33 1 -6 6 -9 18
-6 25 7 18 2 18 -23 -1z"/>
<path d="M1290 1875 c-23 -27 3 -36 27 -9 19 22 20 24 3 24 -9 0 -23 -7 -30
-15z"/>
<path d="M1365 1880 c-4 -7 -1 -16 6 -21 22 -14 39 -11 39 7 0 8 -5 12 -11 8
-6 -3 -15 -1 -19 6 -6 9 -9 10 -15 0z"/>
<path d="M1525 1881 c-3 -5 4 -12 15 -16 28 -9 52 -48 44 -71 -5 -17 -4 -17 6
-2 6 9 17 15 25 12 24 -9 18 28 -8 52 -25 24 -73 38 -82 25z"/>
<path d="M1626 1875 c-3 -9 0 -15 10 -15 9 0 12 -5 8 -12 -4 -7 1 -6 12 3 10
8 35 16 54 18 19 1 39 6 44 11 13 13 -19 13 -64 0 -23 -7 -36 -7 -38 0 -5 15
-19 12 -26 -5z"/>
<path d="M1799 1880 c-4 -28 -4 -60 1 -60 4 0 13 15 22 33 15 31 15 33 -3 33
-11 0 -19 -3 -20 -6z"/>
<path d="M1230 1845 c0 -13 -15 -15 -90 -12 -69 2 -87 0 -77 -9 10 -11 120
-20 183 -15 26 1 27 24 2 40 -14 9 -18 8 -18 -4z"/>
<path d="M2280 1849 c0 -16 46 -80 53 -72 8 7 -33 83 -45 83 -4 0 -8 -5 -8
-11z"/>
<path d="M654 1835 c-7 -18 3 -35 20 -35 9 0 12 9 8 25 -5 28 -20 33 -28 10z"/>
<path d="M1910 1830 c0 -14 -9 -32 -20 -40 -23 -16 -27 -50 -6 -50 17 0 38 24
29 33 -3 4 -1 7 5 7 14 0 16 39 2 60 -8 12 -10 10 -10 -10z"/>
<path d="M793 1833 c-13 -5 -19 -33 -7 -33 15 0 44 22 39 31 -7 10 -13 10 -32
2z"/>
<path d="M877 1819 c-8 -11 -14 -28 -12 -37 2 -9 4 -23 4 -30 1 -7 5 -11 10
-7 5 3 7 22 5 43 -4 28 -3 33 5 22 9 -12 11 -11 11 8 0 27 -5 28 -23 1z"/>
<path d="M1739 1805 c-3 -2 -14 -6 -25 -8 -10 -1 -21 -6 -24 -11 -7 -12 59
-16 66 -4 3 5 14 6 24 3 10 -3 21 -1 25 4 3 7 0 8 -9 5 -9 -3 -16 -1 -16 5 0
11 -32 16 -41 6z"/>
<path d="M2078 1792 c-12 -16 -82 -26 -71 -9 7 11 -22 8 -34 -4 -8 -8 -5 -17
11 -33 l21 -22 29 20 c26 17 34 18 74 7 47 -12 69 -6 39 10 -12 7 -16 17 -12
30 5 15 1 19 -19 19 -14 0 -31 -8 -38 -18z"/>
<path d="M629 1759 c-7 -4 -19 -5 -26 -2 -8 3 -21 -4 -29 -16 -8 -11 -21 -21
-29 -21 -9 0 -12 -6 -8 -17 5 -12 2 -15 -10 -10 -9 3 -20 1 -24 -6 -10 -16 -4
-70 9 -82 8 -7 9 -6 4 3 -24 41 40 109 114 121 20 4 36 13 38 22 3 16 -19 21
-39 8z"/>
<path d="M763 1753 c-12 -2 -24 -10 -26 -17 -7 -18 41 -12 62 8 17 17 12 18
-36 9z"/>
<path d="M1370 1749 c-25 -6 -9 -7 55 -4 53 2 136 -4 202 -14 72 -11 114 -13
116 -7 10 29 140 -59 183 -124 23 -34 24 -41 14 -85 -12 -53 -6 -72 10 -31 24
63 4 123 -63 187 -69 66 -69 66 -128 68 -30 0 -81 3 -114 7 -108 10 -239 12
-275 3z"/>
<path d="M1228 1743 c-34 -4 -39 -8 -50 -46 -7 -23 -16 -45 -21 -48 -5 -4 3
-9 17 -11 23 -5 26 -3 20 16 -5 17 -4 19 7 9 7 -7 20 -13 29 -13 10 1 6 8 -12
21 -23 17 -26 24 -18 40 9 15 22 19 70 19 33 0 60 4 60 10 0 10 -28 11 -102 3z"/>
<path d="M701 1713 c-7 -8 -22 -13 -32 -10 -14 4 -29 -10 -29 -26 0 -1 15 -2
34 -3 21 0 37 6 44 16 14 23 1 42 -17 23z"/>
<path d="M2310 1710 c0 -10 10 -24 21 -31 13 -6 19 -7 15 -1 -3 6 0 12 6 15
10 3 10 7 -1 20 -18 23 -41 21 -41 -3z"/>
<path d="M1044 1692 c-17 -15 -43 -44 -58 -65 -24 -32 -27 -44 -21 -78 4 -23
16 -50 26 -60 10 -10 19 -23 19 -27 0 -9 69 -61 109 -82 13 -7 56 -14 95 -15
l71 -4 -73 10 c-85 11 -152 47 -198 106 -51 66 -40 132 34 200 43 40 39 52 -4
15z"/>
<path d="M1387 1691 c13 -11 27 -30 32 -43 l10 -23 0 25 c1 26 -23 53 -50 58
-8 1 -4 -6 8 -17z"/>
<path d="M1516 1689 c-14 -11 -26 -27 -26 -36 0 -11 7 -7 21 11 11 14 28 26
37 26 9 0 24 5 32 10 12 8 9 10 -11 10 -15 0 -38 -9 -53 -21z"/>
<path d="M2029 1688 c-16 -17 -20 -19 -16 -5 6 16 -12 25 -25 11 -10 -10 30
-43 57 -48 27 -5 32 3 13 22 -9 9 -6 12 14 12 20 0 29 -7 36 -27 6 -16 11 -23
11 -16 1 7 8 10 16 7 21 -9 19 19 -4 47 -16 20 -21 21 -35 10 -12 -10 -19 -11
-30 -2 -11 10 -19 7 -37 -11z"/>
<path d="M760 1689 c-12 -9 -10 -10 8 -6 20 5 21 3 10 -10 -10 -13 -9 -15 7
-12 26 5 33 39 8 39 -10 0 -25 -5 -33 -11z"/>
<path d="M1723 1658 c-5 -24 -5 -45 0 -47 13 -5 15 1 23 47 9 56 -12 56 -23 0z"/>
<path d="M1819 1663 c-1 -5 -1 -12 0 -17 1 -4 -4 -14 -10 -22 -9 -11 -8 -14 1
-14 17 0 39 31 33 47 -6 14 -22 18 -24 6z"/>
<path d="M690 1630 c0 -6 -6 -10 -12 -9 -17 3 -48 -11 -48 -21 0 -14 41 -19
71 -8 34 12 37 23 9 38 -14 8 -20 8 -20 0z"/>
<path d="M1455 1513 c6 -92 6 -92 -19 -99 -14 -3 -30 -3 -35 1 -6 3 -11 -1
-11 -11 0 -12 6 -15 23 -10 62 17 96 17 143 1 133 -48 162 -56 200 -57 48 -1
96 23 136 65 40 45 35 58 -7 15 -49 -50 -96 -71 -148 -64 -65 9 -147 34 -147
45 0 4 -6 8 -12 9 -7 0 -33 4 -58 9 l-45 9 -7 78 c-10 112 -19 118 -13 9z"/>
<path d="M2305 1590 c-3 -5 -1 -11 5 -15 6 -4 8 -10 5 -15 -3 -5 0 -12 6 -15
13 -9 44 19 35 33 -8 13 -45 22 -51 12z"/>
<path d="M2370 1576 c0 -8 5 -18 10 -21 6 -3 10 -19 10 -36 0 -19 5 -29 15
-29 22 0 20 69 -2 86 -23 17 -33 17 -33 0z"/>
<path d="M2084 1549 c-5 -8 1 -10 19 -7 19 4 24 1 19 -10 -4 -11 -1 -14 11 -9
9 3 17 2 17 -3 0 -6 9 -10 20 -10 14 0 20 -7 20 -21 0 -11 5 -17 10 -14 6 3
10 -3 10 -14 0 -12 5 -21 11 -21 6 0 8 -8 4 -19 -7 -23 15 -34 32 -16 10 10 9
16 -2 25 -8 6 -12 17 -9 24 7 18 -55 79 -73 72 -8 -3 -12 -2 -9 3 6 9 -36 31
-59 31 -8 0 -17 -5 -21 -11z"/>
<path d="M2285 1510 c-9 -14 2 -28 36 -45 32 -17 35 -15 17 18 -20 35 -41 46
-53 27z"/>
<path d="M440 1495 c-13 -15 -7 -45 9 -45 11 0 21 49 11 55 -4 3 -13 -2 -20
-10z"/>
<path d="M2080 1503 c0 -7 5 -15 11 -19 6 -3 8 -15 6 -26 -4 -15 -2 -18 10
-14 9 4 21 2 28 -4 8 -7 12 -5 12 5 0 8 -4 15 -8 15 -5 0 -20 12 -34 27 -14
15 -25 22 -25 16z"/>
<path d="M538 1448 c7 -7 12 -24 12 -39 0 -28 12 -44 24 -32 3 3 1 12 -5 20
-9 10 -8 13 4 13 16 0 18 31 2 42 -5 4 -19 8 -29 8 -16 0 -17 -3 -8 -12z"/>
<path d="M347 1423 c-5 -7 -6 -13 -3 -13 3 0 2 -11 -3 -23 -5 -13 -5 -30 -1
-38 7 -11 10 -11 15 3 9 23 2 86 -8 71z"/>
<path d="M2446 1415 c4 -8 10 -15 14 -15 4 0 14 -15 21 -32 l13 -33 3 27 c3
18 -3 34 -16 47 -24 24 -43 28 -35 6z"/>
<path d="M2357 1393 c-8 -18 -6 -72 3 -78 6 -4 8 -11 5 -16 -4 -5 -1 -9 5 -9
17 0 24 31 12 51 -7 10 -12 24 -12 31 0 9 3 8 10 -2 11 -17 13 -10 4 14 -6 17
-20 21 -27 9z"/>
<path d="M2575 1355 c-13 -59 -13 -65 -4 -65 18 0 31 44 21 70 l-10 25 -7 -30z"/>
<path d="M2510 1333 c2 -28 27 -102 33 -97 11 12 8 39 -9 72 -15 31 -24 40
-24 25z"/>
<path d="M516 1251 c-3 -5 0 -23 8 -41 8 -20 16 -28 20 -21 4 6 4 11 -1 12 -4
0 2 4 15 9 19 8 21 13 12 30 -11 20 -44 27 -54 11z"/>
<path d="M1024 1202 c4 -6 25 -16 47 -22 22 -6 47 -14 56 -17 11 -5 14 -3 9 6
-6 9 -3 9 13 -1 12 -7 21 -16 21 -20 0 -5 5 -8 10 -8 17 0 6 24 -20 42 -14 10
-41 17 -60 17 -19 -1 -46 2 -59 6 -17 6 -22 5 -17 -3z"/>
<path d="M2064 1165 c17 -48 22 -51 30 -14 6 32 -4 48 -30 49 -9 0 -8 -9 0
-35z"/>
<path d="M2489 1169 c-1 -8 -3 -36 -4 -64 -1 -27 -4 -62 -7 -78 -4 -20 -2 -25
7 -17 21 18 35 82 25 123 -9 42 -19 59 -21 36z"/>
<path d="M1705 1161 l-30 -7 28 -7 c29 -8 47 -3 47 14 0 10 -1 10 -45 0z"/>
<path d="M1433 1136 c4 -10 -1 -12 -16 -9 -16 4 -14 1 7 -11 35 -20 58 -6 33
18 -19 20 -31 21 -24 2z"/>
<path d="M1515 1132 c-35 -18 -20 -27 31 -18 20 4 34 13 34 21 0 19 -26 17
-65 -3z"/>
<path d="M1084 1105 c-4 -8 -14 -15 -23 -15 -10 0 -18 -7 -18 -15 0 -22 17
-18 39 7 15 17 21 19 27 9 5 -7 11 -9 14 -4 3 5 -3 14 -14 21 -16 10 -21 10
-25 -3z"/>
<path d="M1950 1090 c0 -5 -8 -6 -17 -3 -14 5 -13 3 3 -14 10 -11 23 -18 27
-15 5 2 3 -5 -5 -17 -7 -11 -26 -25 -42 -31 -25 -9 -27 -12 -15 -26 13 -16 14
-16 17 -1 2 10 13 17 24 17 11 0 22 8 25 20 5 18 15 24 36 21 4 0 7 6 7 15 0
14 -2 15 -17 3 -15 -12 -16 -12 -10 3 3 10 1 20 -5 24 -7 4 -8 3 -4 -4 4 -7 1
-12 -8 -12 -10 0 -13 6 -10 15 4 8 3 15 0 15 -3 0 -6 -4 -6 -10z"/>
<path d="M540 1059 c0 -24 3 -30 16 -25 9 3 20 6 25 6 14 0 0 24 -21 38 -18
11 -20 10 -20 -19z"/>
<path d="M1623 1072 c-13 -2 -23 -7 -23 -12 0 -15 20 -22 33 -12 7 5 21 12 32
14 20 4 20 4 0 9 -11 2 -30 3 -42 1z"/>
<path d="M2327 1067 c-6 -16 29 -61 42 -53 6 4 3 18 -7 36 -19 33 -27 37 -35
17z"/>
<path d="M635 1040 c-9 -29 12 -50 49 -50 28 1 29 2 11 12 -26 15 -36 30 -30
46 2 6 -2 12 -10 12 -7 0 -17 -9 -20 -20z"/>
<path d="M440 1025 c-13 -15 -7 -45 9 -45 13 0 22 28 10 35 -5 4 -7 11 -4 16
10 14 -1 11 -15 -6z"/>
<path d="M790 1010 c0 -14 39 -90 46 -90 3 0 2 5 -1 10 -3 6 2 10 12 11 11 0
13 3 5 6 -6 2 -9 9 -6 14 3 6 1 15 -4 22 -6 7 -10 17 -9 22 1 6 -8 11 -20 13
-13 2 -23 -2 -23 -8z"/>
<path d="M1122 1012 c-7 -5 -10 -16 -6 -25 9 -24 24 -21 24 6 0 18 2 19 10 7
8 -13 10 -12 10 3 0 18 -17 22 -38 9z"/>
<path d="M2508 965 c-8 -17 -25 -58 -38 -92 -20 -56 -40 -82 -40 -52 0 6 -12
1 -26 -10 -15 -11 -30 -18 -35 -15 -5 3 -9 1 -9 -5 0 -20 18 -20 35 -1 22 24
39 26 31 3 -6 -14 -3 -14 15 3 50 43 59 55 59 77 0 12 8 36 18 52 12 19 16 38
12 50 -6 18 -8 17 -22 -10z"/>
<path d="M2283 960 c-16 -7 -23 -18 -23 -36 l0 -28 30 34 c40 44 39 48 -7 30z"/>
<path d="M1166 920 c3 -18 1 -30 -6 -30 -6 0 -9 4 -5 9 3 5 1 12 -5 16 -18 11
-10 -24 9 -37 10 -7 19 -17 20 -23 0 -5 7 -10 14 -10 6 0 15 -4 19 -10 4 -5 8
0 8 12 0 12 -5 25 -12 29 -7 5 -9 2 -4 -7 4 -8 0 -5 -8 5 -9 11 -16 30 -16 42
0 13 -4 25 -9 28 -5 4 -7 -7 -5 -24z"/>
<path d="M2397 922 c-21 -23 -22 -43 -2 -36 14 6 31 42 23 50 -3 2 -12 -4 -21
-14z"/>
<path d="M500 921 c0 -6 -7 -11 -16 -11 -10 0 -12 -5 -7 -12 4 -7 8 -18 9 -24
4 -28 60 -127 77 -136 15 -8 24 -5 43 13 26 25 29 38 14 83 -5 17 -12 43 -15
59 -3 15 -10 27 -15 27 -13 0 -13 -37 0 -45 6 -3 10 -19 10 -35 0 -15 6 -30
13 -33 18 -6 -12 -59 -32 -55 -8 2 -22 17 -31 33 -8 17 -19 33 -24 36 -5 4 -5
12 -1 19 5 8 4 11 -3 6 -15 -9 -25 30 -13 53 7 13 8 22 1 26 -5 3 -10 1 -10
-4z"/>
<path d="M2310 928 c0 -4 8 -23 17 -42 l17 -36 -41 -47 c-25 -30 -73 -67 -126
-98 -48 -27 -96 -60 -107 -72 -11 -13 -25 -23 -30 -23 -5 0 -29 -18 -55 -40
-25 -22 -64 -44 -88 -50 -23 -7 -60 -22 -82 -34 -34 -19 -86 -34 -178 -51 -10
-2 -14 1 -11 7 5 8 -10 9 -47 3 -88 -13 -94 -12 -94 9 0 11 6 21 13 24 7 2 10
-2 6 -12 -8 -21 33 -21 61 0 17 13 18 16 5 24 -19 12 -34 12 -46 0 -6 -6 -19
-5 -37 5 -26 13 -27 13 -27 -15 0 -20 -6 -31 -20 -35 -11 -3 -20 -11 -20 -16
0 -5 -7 -9 -16 -9 -8 0 -12 4 -9 10 3 5 0 8 -7 6 -71 -22 -141 -27 -235 -17
-100 11 -218 42 -238 63 -7 8 -4 9 10 3 11 -4 29 -10 40 -13 18 -5 19 -4 6 12
-10 12 -24 16 -45 13 -31 -5 -123 33 -138 57 -5 6 -8 7 -8 1 0 -5 -5 -2 -11 8
-5 9 -15 17 -22 17 -7 0 -25 12 -42 26 -16 14 -40 34 -52 44 -43 37 -74 52
-111 55 -47 4 -78 -22 -117 -96 -16 -30 -34 -61 -40 -69 -9 -13 -32 -62 -66
-145 -4 -11 -17 -50 -28 -87 -11 -36 -24 -75 -30 -85 -24 -44 -61 -137 -61
-153 0 -23 -22 -41 -39 -31 -9 6 -11 20 -6 50 8 49 -5 54 -28 9 l-16 -33 0 35
c0 19 8 55 19 79 32 70 22 72 -12 3 -30 -63 -30 -65 -15 -110 13 -43 18 -48
53 -53 46 -8 104 12 104 36 0 17 22 55 57 99 13 15 32 47 43 71 11 24 30 56
43 71 41 50 97 153 108 202 7 26 15 52 20 57 4 6 13 32 19 58 7 26 16 47 20
47 5 0 6 10 3 23 -4 19 -2 18 19 -8 35 -45 78 -83 128 -112 25 -14 52 -31 60
-38 19 -15 121 -68 183 -95 27 -12 80 -23 120 -26 40 -3 79 -7 87 -10 34 -13
104 -15 154 -4 30 6 124 13 210 15 113 2 163 7 188 19 18 8 64 23 103 32 38 8
72 19 75 22 3 4 28 18 56 31 30 13 56 33 63 47 6 13 17 24 24 24 7 0 31 15 53
34 42 36 140 86 168 86 10 0 24 7 32 15 24 23 29 19 58 -42 15 -32 34 -69 41
-83 7 -14 18 -43 25 -65 7 -22 27 -60 45 -85 18 -25 36 -55 39 -67 14 -45 114
-110 221 -143 22 -7 44 -16 50 -21 12 -12 59 -11 71 1 5 5 32 13 59 16 46 7
64 17 65 37 0 4 -9 3 -19 -3 -27 -14 -44 -13 -38 3 2 6 13 13 25 13 44 3 47 4
36 12 -6 4 -16 17 -23 30 -10 18 -9 22 4 22 19 0 19 14 0 30 -10 9 -15 9 -15
1 0 -21 -20 -11 -30 14 -5 14 -14 25 -20 25 -5 0 -10 7 -10 15 0 8 -3 15 -7
15 -5 0 -31 21 -58 48 -28 26 -67 60 -88 76 -21 15 -43 39 -49 52 -7 14 -17
23 -24 20 -8 -3 -19 0 -26 7 -7 7 -33 27 -57 45 -34 24 -40 32 -25 33 10 0 2
6 -18 12 -29 9 -36 15 -29 26 8 12 14 13 36 3 36 -17 55 -14 25 3 -34 19 -114
19 -130 0 -10 -12 -10 -15 1 -15 16 0 165 -104 253 -176 150 -123 261 -246
254 -281 -3 -15 -11 -10 -46 25 -47 49 -54 45 -17 -10 30 -44 31 -51 6 -43
-12 3 -21 0 -24 -10 -5 -10 -18 -14 -46 -12 -22 1 -43 6 -47 10 -4 4 -15 7
-23 7 -9 0 -33 11 -53 25 -31 21 -36 22 -31 8 7 -17 5 -17 -22 1 -42 26 -105
97 -105 117 0 9 -11 24 -25 33 -14 9 -28 29 -31 44 -4 15 -11 33 -16 39 -6 7
-8 19 -5 28 4 8 2 17 -4 21 -6 3 -7 19 -4 35 6 24 3 29 -13 29 -10 0 -24 10
-30 23 -7 12 -17 30 -24 39 -10 15 -9 20 7 34 15 11 16 14 4 11 -9 -3 -22 0
-28 6 -8 8 -11 7 -11 -6 0 -9 -5 -17 -11 -17 -5 0 -7 5 -4 10 9 14 -1 12 -38
-6 -31 -16 -30 -15 11 25 23 22 42 49 42 58 0 9 7 24 16 34 14 16 14 18 -5 24
-12 3 -28 18 -36 33 -8 15 -14 24 -15 20z m-1764 -249 c3 -6 2 -14 -4 -18 -13
-8 -65 -132 -58 -138 8 -8 -26 -85 -56 -127 -15 -21 -25 -43 -21 -49 3 -5 1
-7 -4 -4 -14 9 -83 -97 -83 -126 0 -4 -11 -23 -25 -41 -14 -18 -25 -37 -25
-42 0 -5 -11 -21 -24 -36 -14 -14 -23 -28 -20 -31 3 -3 1 -8 -5 -12 -21 -12
-11 21 34 110 24 50 45 96 45 103 0 27 59 179 97 250 58 110 58 111 89 143 29
31 48 36 60 18z"/>
<path d="M868 912 c-22 -4 -23 -16 -4 -31 11 -9 15 -7 19 11 7 26 7 26 -15 20z"/>
<path d="M1297 906 c-4 -10 -7 -31 -7 -47 0 -22 5 -29 19 -29 25 0 34 27 13
39 -14 8 -14 10 -2 11 10 0 11 3 4 8 -6 4 -13 14 -16 21 -3 12 -6 11 -11 -3z"/>
<path d="M696 897 c-12 -25 2 -70 19 -63 7 2 15 -2 17 -10 2 -11 6 -10 16 6
11 18 10 20 -12 20 -20 0 -25 6 -28 33 -3 25 -6 28 -12 14z"/>
<path d="M2071 863 c-1 -14 -7 -23 -17 -23 -16 0 -15 -21 2 -27 15 -5 32 30
23 52 -7 19 -8 19 -8 -2z"/>
<path d="M2224 855 c-36 -36 -19 -54 17 -19 16 15 29 31 29 36 0 16 -21 8 -46
-17z"/>
<path d="M840 841 c0 -23 25 -47 35 -32 3 6 8 20 10 31 3 16 -2 20 -21 20 -17
0 -24 -6 -24 -19z"/>
<path d="M1007 854 c-4 -4 -7 -20 -7 -35 0 -34 37 -60 51 -38 5 8 4 15 -1 17
-6 2 -10 9 -10 16 0 18 -24 48 -33 40z"/>
<path d="M1690 828 c0 -9 -7 -18 -15 -22 -24 -9 -17 -26 10 -26 23 0 25 3 19
28 -8 32 -14 41 -14 20z"/>
<path d="M1977 812 c-10 -11 -17 -28 -15 -37 4 -19 23 -21 23 -2 0 6 4 15 8
18 5 4 7 14 5 24 -3 16 -5 15 -21 -3z"/>
<path d="M1110 782 c0 -10 -5 -23 -12 -30 -9 -9 -9 -16 4 -28 14 -15 18 -14
42 1 31 20 28 32 -3 15 -12 -6 -21 -9 -21 -8 0 2 4 18 9 36 8 25 7 32 -5 32
-8 0 -14 -8 -14 -18z"/>
<path d="M1265 780 c-3 -5 -1 -10 4 -10 6 0 11 -5 11 -11 0 -5 -4 -7 -10 -4
-5 3 -10 1 -10 -4 0 -12 23 -15 32 -5 8 7 -3 44 -13 44 -4 0 -11 -4 -14 -10z"/>
<path d="M2157 774 c-20 -7 -47 -23 -59 -34 -12 -11 -28 -20 -35 -20 -7 0 -13
-9 -13 -20 0 -11 4 -20 9 -20 21 0 41 13 41 27 0 8 5 11 10 8 6 -3 10 -1 10 5
0 6 20 19 45 30 25 11 45 24 45 30 0 12 -4 12 -53 -6z"/>
<path d="M810 757 c0 -8 -7 -18 -16 -21 -8 -3 -13 -10 -9 -15 3 -5 -4 -12 -15
-16 -26 -8 -26 -25 0 -25 11 0 20 7 20 15 0 8 9 20 20 27 22 14 26 33 10 43
-5 3 -10 0 -10 -8z"/>
<path d="M1804 732 c-12 -2 -24 -11 -27 -21 -3 -14 0 -17 14 -14 18 5 46 31
38 36 -2 2 -14 1 -25 -1z"/>
<path d="M1710 721 c13 -9 12 -12 -7 -17 -31 -9 -29 -22 2 -20 19 1 25 6 23
20 -2 11 -10 21 -18 23 -13 4 -13 3 0 -6z"/>
<path d="M2586 721 c-3 -4 18 -16 47 -25 29 -9 68 -26 87 -37 33 -20 34 -20
15 -1 -22 22 -113 72 -132 72 -6 0 -14 -4 -17 -9z"/>
<path d="M1818 696 c-10 -7 -18 -16 -18 -20 0 -13 28 -5 45 14 21 24 1 28 -27
6z"/>
<path d="M1424 666 c-4 -18 -2 -35 5 -45 6 -9 14 -24 17 -33 3 -9 12 -19 19
-22 11 -4 11 1 3 25 -8 25 -7 34 8 51 19 20 19 20 -1 16 -13 -2 -24 4 -32 17
-11 19 -12 19 -19 -9z"/>
<path d="M973 660 c6 -11 19 -20 28 -20 22 0 48 -29 28 -31 -8 -1 -18 -1 -24
1 -5 1 -5 -4 1 -10 9 -9 18 -8 39 2 l27 14 -39 25 c-21 14 -46 28 -55 32 -15
5 -16 4 -5 -13z"/>
<path d="M1547 655 c-21 -29 -14 -53 10 -33 12 10 18 9 29 -7 12 -16 14 -16
14 -2 0 19 -21 67 -29 67 -3 0 -14 -12 -24 -25z"/>
<path d="M1233 632 c28 -29 36 -62 15 -62 -6 0 -3 -9 7 -20 10 -11 24 -20 31
-20 15 0 39 38 30 47 -3 3 -8 -2 -12 -11 -9 -24 -36 1 -28 26 7 22 -30 68 -55
68 -10 0 -7 -8 12 -28z"/>
<path d="M837 643 c-14 -14 -6 -22 31 -30 20 -4 40 -6 43 -5 4 0 23 2 42 4 20
1 33 6 31 10 -3 5 -9 6 -14 3 -5 -3 -19 -1 -32 4 -37 13 -94 22 -101 14z"/>
<path d="M1110 640 c-10 -7 -11 -10 -2 -10 6 0 12 -4 12 -10 0 -5 -7 -7 -16
-3 -25 10 -13 -27 15 -46 24 -15 24 -15 18 9 -3 13 -2 29 4 36 13 16 -12 36
-31 24z"/>
<path d="M1800 615 c-10 -12 -9 -16 3 -21 21 -8 37 3 30 21 -7 19 -17 19 -33
0z"/>
<path d="M2760 610 c6 -11 16 -20 23 -20 7 0 6 -4 -3 -10 -9 -6 -10 -10 -3
-10 21 0 25 21 7 41 -22 25 -38 25 -24 -1z"/>
<path d="M782 596 c10 -7 15 -16 12 -19 -9 -8 27 -24 71 -30 l40 -6 -50 25
c-27 13 -54 29 -59 34 -6 6 -15 10 -20 10 -6 0 -3 -7 6 -14z"/>
<path d="M1695 593 c-14 -10 -33 -12 -62 -8 -25 4 -44 2 -48 -5 -3 -6 -10 -8
-15 -5 -5 3 -11 1 -14 -3 -3 -5 -16 -7 -29 -5 -18 4 -23 0 -24 -17 -2 -17 2
-20 15 -15 9 4 33 11 52 16 19 4 48 11 64 15 26 6 27 5 17 -14 -19 -36 -14
-45 21 -38 44 9 60 26 25 26 -15 0 -27 5 -27 10 0 6 3 10 8 10 4 0 18 9 31 19
28 22 15 36 -14 14z"/>
<path d="M945 570 c-3 -5 0 -10 8 -10 8 0 30 -3 48 -6 23 -4 29 -2 19 4 -25
16 -68 23 -75 12z"/>
<path d="M1738 558 c-5 -13 2 -17 37 -20 39 -3 75 9 75 24 0 9 -63 7 -81 -3
-12 -6 -19 -5 -21 3 -3 8 -7 6 -10 -4z"/>
<path d="M1108 522 c22 -20 120 -48 130 -37 11 11 -33 45 -57 44 -14 -1 -42 2
-61 6 l-35 6 23 -19z"/>
<path d="M1715 493 c-11 -3 -24 -10 -30 -17 -5 -7 -17 -15 -25 -19 -10 -4 -8
-6 7 -6 12 -1 24 3 28 8 3 5 19 12 35 16 17 4 28 11 24 16 -5 9 -7 10 -39 2z"/>
<path d="M1055 477 c23 -8 56 -17 75 -20 34 -6 34 -6 10 7 -14 8 -48 17 -75
20 l-50 6 40 -13z"/>
<path d="M244 459 c-13 -18 -16 -57 -4 -64 11 -7 23 35 18 61 -2 14 -5 15 -14
3z"/>
<path d="M174 387 c-22 -26 -46 -67 -39 -67 5 0 1 -8 -7 -17 -16 -18 -43 -122
-34 -130 2 -3 10 5 16 17 6 12 9 24 6 27 -3 4 5 20 17 37 37 49 43 63 17 41
l-23 -20 18 35 c9 19 29 47 43 63 17 18 21 27 11 27 -8 -1 -19 -6 -25 -13z"/>
</g>
</svg>
