<svg xmlns="http://www.w3.org/2000/svg" version="1.1" xmlns:xlink="http://www.w3.org/1999/xlink" xmlns:svgjs="http://svgjs.com/svgjs" width="1440" height="560" preserveAspectRatio="none" viewBox="0 0 1440 560"><g mask="url(&quot;#SvgjsMask1692&quot;)" fill="none"><rect width="1440" height="560" x="0" y="0" fill="url(#SvgjsLinearGradient1693)"></rect><path d="M1440 0L1299.85 0L1440 241.2z" fill="rgba(255, 255, 255, .1)"></path><path d="M1299.85 0L1440 241.2L1440 249.66L656.7299999999999 0z" fill="rgba(255, 255, 255, .075)"></path><path d="M656.73 0L1440 249.66L1440 265.28L252.98000000000002 0z" fill="rgba(255, 255, 255, .05)"></path><path d="M252.98000000000002 0L1440 265.28L1440 370.04999999999995L229.95000000000002 0z" fill="rgba(255, 255, 255, .025)"></path><path d="M0 560L110.29 560L0 408.25z" fill="rgba(0, 0, 0, .1)"></path><path d="M0 408.25L110.29 560L148.97 560L0 339.87z" fill="rgba(0, 0, 0, .075)"></path><path d="M0 339.87L148.97 560L695.64 560L0 129.46z" fill="rgba(0, 0, 0, .05)"></path><path d="M0 129.46000000000004L695.64 560L1152.33 560L0 108.34000000000003z" fill="rgba(0, 0, 0, .025)"></path></g><defs><mask id="SvgjsMask1692"><rect width="1440" height="560" fill="#ffffff"></rect></mask><linearGradient x1="84.72%" y1="139.29%" x2="15.28%" y2="-39.29%" gradientUnits="userSpaceOnUse" id="SvgjsLinearGradient1693"><stop stop-color="rgba(255, 27, 27, 1)" offset="0"></stop><stop stop-color="rgba(255, 224, 48, 1)" offset="1"></stop></linearGradient></defs></svg>